<svg xmlns="http://www.w3.org/2000/svg" viewBox="0 0 1920 1080">
  <defs>
    <linearGradient id="bgGradient" x1="0%" y1="0%" x2="100%" y2="100%">
      <stop offset="0%" style="stop-color:#2c1810;stop-opacity:1" />
      <stop offset="50%" style="stop-color:#4a2c1a;stop-opacity:1" />
      <stop offset="100%" style="stop-color:#6b3e2a;stop-opacity:1" />
    </linearGradient>
    <radialGradient id="lightGradient" cx="50%" cy="30%" r="60%">
      <stop offset="0%" style="stop-color:#ffd700;stop-opacity:0.3" />
      <stop offset="100%" style="stop-color:#ff8c00;stop-opacity:0.1" />
    </radialGradient>
  </defs>
  
  <!-- Background -->
  <rect width="1920" height="1080" fill="url(#bgGradient)"/>
  
  <!-- Warm lighting overlay -->
  <rect width="1920" height="1080" fill="url(#lightGradient)"/>
  
  <!-- Restaurant elements -->
  <!-- Tables -->
  <ellipse cx="300" cy="800" rx="80" ry="40" fill="#8B4513" opacity="0.3"/>
  <ellipse cx="1600" cy="850" rx="70" ry="35" fill="#8B4513" opacity="0.3"/>
  
  <!-- Kitchen smoke/steam -->
  <circle cx="1700" cy="200" r="30" fill="#ffffff" opacity="0.1"/>
  <circle cx="1720" cy="180" r="25" fill="#ffffff" opacity="0.08"/>
  <circle cx="1740" cy="160" r="20" fill="#ffffff" opacity="0.06"/>
  
  <!-- Food elements -->
  <!-- Burger icon -->
  <g transform="translate(200,200) scale(2)">
    <circle cx="0" cy="0" r="25" fill="#D2691E" opacity="0.4"/>
    <rect x="-20" y="-5" width="40" height="10" fill="#228B22" opacity="0.3"/>
    <rect x="-15" y="5" width="30" height="8" fill="#8B4513" opacity="0.4"/>
  </g>
  
  <!-- Pizza slice -->
  <g transform="translate(1500,300) scale(1.5)">
    <path d="M0,0 L30,0 A30,30 0 0,1 21,21 Z" fill="#FFD700" opacity="0.3"/>
    <circle cx="10" cy="8" r="3" fill="#FF6347" opacity="0.4"/>
    <circle cx="20" cy="12" r="2" fill="#32CD32" opacity="0.4"/>
  </g>
  
  <!-- Coffee cup -->
  <g transform="translate(1200,600) scale(1.8)">
    <rect x="0" y="10" width="20" height="25" rx="2" fill="#8B4513" opacity="0.3"/>
    <ellipse cx="10" cy="10" rx="10" ry="3" fill="#654321" opacity="0.4"/>
    <path d="M20,15 Q25,15 25,20 Q25,25 20,25" stroke="#8B4513" stroke-width="2" fill="none" opacity="0.3"/>
  </g>
  
  <!-- Decorative patterns -->
  <circle cx="100" cy="100" r="50" fill="none" stroke="#FFD700" stroke-width="2" opacity="0.2"/>
  <circle cx="1800" cy="900" r="60" fill="none" stroke="#FF8C00" stroke-width="2" opacity="0.2"/>
</svg>